<svg xmlns="http://www.w3.org/2000/svg" version="1.1" xmlns:xlink="http://www.w3.org/1999/xlink" xmlns:svgjs="http://svgjs.dev/svgjs" width="1500" height="1500" viewBox="0 0 1500 1500"><rect width="1500" height="1500" fill="#ffffff"></rect><g transform="matrix(0.6666666666666666,0,0,0.6666666666666666,248.442401012461,189.33333333333348)"><svg viewBox="0 0 321 360" data-background-color="#f8f8f8" preserveAspectRatio="xMidYMid meet" height="1682" width="1500" xmlns="http://www.w3.org/2000/svg" xmlns:xlink="http://www.w3.org/1999/xlink"><g id="tight-bounds" transform="matrix(1,0,0,1,0.5000107250000383,0)"><svg viewBox="0 0 320 360" height="360" width="320"><g><svg></svg></g><g><svg viewBox="0 0 320 360" height="360" width="320"><g><path transform="translate(-21.67367,-1.67367) scale(3.63347,3.63347)" d="M87.84 28.16c-3.42-5.92-31.01-21.84-37.84-21.84-6.83 0-34.41 15.92-37.84 21.84-3.19 5.51-3.19 38.18 0 43.69 3.43 5.91 31.01 21.83 37.84 21.83 6.83 0 34.42-15.92 37.84-21.84 3.19-5.51 3.19-38.17 0-43.68zM91.14 26.25c-3.98-6.88-32.88-23.75-41.14-23.75-8.26 0-37.16 16.87-41.14 23.75-3.86 6.66-3.86 40.84 0 47.5 3.98 6.88 32.88 23.75 41.14 23.75 8.26 0 37.16-16.87 41.14-23.74 3.86-6.67 3.86-40.85 0-47.51zM88.78 72.39c-3.51 6.07-31.78 22.38-38.78 22.38-7 0-35.27-16.32-38.78-22.39-3.27-5.65-3.27-39.13 0-44.78 3.51-6.06 31.78-22.37 38.78-22.37 7 0 35.27 16.32 38.78 22.38 3.27 5.65 3.27 39.13 0 44.78z" fill="#000000" fill-rule="nonzero" stroke="none" stroke-width="1" stroke-linecap="butt" stroke-linejoin="miter" stroke-miterlimit="10" stroke-dasharray="" stroke-dashoffset="0" font-family="none" font-weight="none" font-size="none" text-anchor="none" style="mix-blend-mode: normal" data-fill-palette-color="tertiary"></path></g><g transform="matrix(1,0,0,1,77.66324408290153,90)"><svg viewBox="0 0 164.67351183419694 180" height="180" width="164.67351183419694"><g><svg viewBox="0 0 164.67351183419694 180" height="180" width="164.67351183419694"><g><svg viewBox="0 0 224 244.8481212971068" height="180" width="164.67351183419694"><g transform="matrix(1,0,0,1,0,142.16825849944902)"><svg viewBox="0 0 224 102.67986279765776" height="102.67986279765776" width="224"><g id="textblocktransform"><svg viewBox="0 0 224 102.67986279765776" height="102.67986279765776" width="224" id="textblock"><g><svg viewBox="0 0 224 55.38061158100194" height="55.38061158100194" width="224"><g transform="matrix(1,0,0,1,0,0)"><svg width="224" viewBox="0.3 -37.5 153.69 38" height="55.38061158100194" data-palette-color="#2c3e50"><path d="M13.05-34.05L21.2-10.1 25.35-24.5 22.35-34.05 19.5-34.05 19.5-35 35-35 35-34.05 32.05-34.05 39.5-10.4 45.5-34.05 40.45-34.05 40.45-35 50.45-35 50.45-34.05 47.15-34.05 37.95 0.5 33.5 0.5 26.1-22.1 19.6 0.5 15.25 0.5 2.65-34.05 0.3-34.05 0.3-35 16.55-35 16.55-34.05 13.05-34.05ZM60.4 0.5Q53.95 0.5 50.72-2.83 47.5-6.15 47.5-12.08 47.5-18 51.12-21.15 54.75-24.3 60.35-24.3L60.35-24.3Q71.7-24.3 71.25-12.9L71.25-12.9 57.15-12.9 57.15-10.95Q57.15-6.05 58.4-3.55 59.65-1.05 62.75-1.05L62.75-1.05Q68.55-1.05 70.35-7.25L70.35-7.25 71.25-7.1Q70.3-3.5 67.82-1.5 65.35 0.5 60.4 0.5L60.4 0.5ZM57.2-16.35L57.2-13.9 62.35-13.9 62.35-16.35Q62.35-20.4 61.87-21.88 61.4-23.35 59.97-23.35 58.55-23.35 57.87-21.78 57.2-20.2 57.2-16.35L57.2-16.35ZM91.3-13.45Q91.3-18.6 90.8-20.38 90.3-22.15 88.84-22.15 87.4-22.15 86.25-20.35 85.09-18.55 85.09-15.4L85.09-15.4 85.09-6.1Q85.09-3.95 85.97-2.45 86.84-0.95 88.47-0.95 90.09-0.95 90.7-3.15 91.3-5.35 91.3-10.85L91.3-10.85 91.3-13.45ZM73.05-37.5L85.09-37.5 85.09-20Q87-24.3 91.59-24.3L91.59-24.3Q100.95-24.3 100.95-11.85L100.95-11.85Q100.95-5.5 98.37-2.5 95.8 0.5 90.65 0.5L90.65 0.5Q88.05 0.5 86.67-0.3 85.3-1.1 84.8-2.95L84.8-2.95 84.45 0 73.05 0 73.05-0.9 75.8-0.9 75.8-36.6 73.05-36.6 73.05-37.5ZM110.74-34.05L110.74-35 126.99-35 126.99-34.05 124.24-34.05 124.24-12.45Q124.24-5.7 121.19-2.63 118.14 0.45 112.04 0.45L112.04 0.45Q107.99 0.45 105.62-1.1 103.24-2.65 103.24-5.45L103.24-5.45Q103.24-7.6 104.44-8.83 105.64-10.05 107.72-10.05 109.79-10.05 110.82-9 111.84-7.95 111.84-6.48 111.84-5 111.29-3.5L111.29-3.5 109.34-3.5Q108.89-2.75 108.89-2.08 108.89-1.4 109.57-0.93 110.24-0.45 111.34-0.45L111.34-0.45Q113.34-0.45 113.92-2.02 114.49-3.6 114.49-8.85L114.49-8.85 114.49-34.05 110.74-34.05ZM139.04-11.75L139.04-11.75 140.49-11.75 140.49-15.6Q140.49-20.35 139.97-21.98 139.44-23.6 137.94-23.6L137.94-23.6Q137.04-23.6 136.32-23.13 135.59-22.65 135.59-21.83 135.59-21 135.89-20.15L135.89-20.15 137.14-20.15Q137.54-19.1 137.54-17.63 137.54-16.15 136.29-15.08 135.04-14 133.14-14L133.14-14Q128.84-14 128.84-18.15L128.84-18.15Q128.84-24.3 139.29-24.3L139.29-24.3Q145.24-24.3 147.52-22.28 149.79-20.25 149.79-14.85L149.79-14.85 149.79-4.7Q149.79-2.1 151.24-2.1L151.24-2.1Q152.94-2.1 153.24-7.25L153.24-7.25 153.99-7.2Q153.79-2.8 152.34-1.15 150.89 0.5 147.59 0.5L147.59 0.5Q141.59 0.5 140.69-3.2L140.69-3.2Q140.04-1.3 138.74-0.4 137.44 0.5 134.94 0.5L134.94 0.5Q127.54 0.5 127.54-5.55L127.54-5.55Q127.54-9.1 130.37-10.43 133.19-11.75 139.04-11.75ZM137.04-5.6Q137.04-3 137.32-2.25 137.59-1.5 138.37-1.5 139.14-1.5 139.82-2.78 140.49-4.05 140.49-6.3L140.49-6.3 140.49-10.95 140.14-10.95Q137.04-10.95 137.04-6.4L137.04-6.4 137.04-5.6Z" opacity="1" transform="matrix(1,0,0,1,0,0)" fill="#ffffff" class="wordmark-text-0" data-fill-palette-color="quaternary" id="text-0"></path></svg></g></svg></g><g transform="matrix(1,0,0,1,0,68.45464484059856)"><svg viewBox="0 0 224 34.2252179570592" height="34.2252179570592" width="224"><g transform="matrix(1,0,0,1,0,0)"><svg width="224" viewBox="0.75 -36.6 285.03 43.550000000000004" height="34.2252179570592" data-palette-color="#2c3e50"><path d="M9.45 6.95L9.45 6.95Q7.2 6.95 5.2 5.95 3.2 4.95 1.98 3.2 0.75 1.45 0.75-0.75L0.75-0.75 1.35-1.05Q3.7 0.7 6.05 0.7L6.05 0.7Q7.4 0.7 8.6-0.05 9.8-0.8 10.73-2.7 11.65-4.6 12.18-7.95 12.7-11.3 12.7-16.55L12.7-16.55Q12.7-21 13.28-23.95 13.85-26.9 15.65-29.35L15.65-29.35Q15-29.8 14.13-30.18 13.25-30.55 12.3-30.55L12.3-30.55Q10.7-30.55 9.68-29.38 8.65-28.2 8.65-26.4L8.65-26.4Q8.65-25.45 8.97-24.4 9.3-23.35 10-22.3L10-22.3Q7-22.3 5.03-23.38 3.05-24.45 2.08-26.1 1.1-27.75 1.1-29.55L1.1-29.55Q1.1-31.35 1.98-32.95 2.85-34.55 4.6-35.58 6.35-36.6 8.85-36.6L8.85-36.6Q10.8-36.6 13.2-35.83 15.6-35.05 18.45-33.25L18.45-33.25Q20.2-35.3 21.6-35.8 23-36.3 23.8-36.3L23.8-36.3Q25.85-36.3 26.8-34.93 27.75-33.55 27.75-31.65L27.75-31.65Q27.75-30.4 27.28-29.2 26.8-28 25.8-27.23 24.8-26.45 23.2-26.45L23.2-26.45Q22.7-26.45 22.13-26.55 21.55-26.65 20.85-26.9L20.85-26.9Q20.5-26 20.35-24.8 20.2-23.6 20.2-22.2L20.2-22.2Q20.2-19.45 20.5-16.32 20.8-13.2 20.8-10.2L20.8-10.2Q20.8-5.5 19.8-2.23 18.8 1.05 17.15 3.08 15.5 5.1 13.5 6.03 11.5 6.95 9.45 6.95ZM36.83 0.2L36.83 0.2Q34.58 0.2 33.05-1.65 31.53-3.5 31.53-6.6L31.53-6.6Q31.53-8.3 31.93-10.25 32.33-12.2 32.73-13.95L32.73-13.95Q33.08-15.25 33.3-16.38 33.53-17.5 33.53-18.2L33.53-18.2Q33.53-19.1 33.15-19.5 32.78-19.9 32.28-19.9L32.28-19.9Q31.78-19.9 31.28-19.58 30.78-19.25 30.48-18.6L30.48-18.6 30.08-18.75Q30.08-20.8 31.08-22.25 32.08-23.7 33.63-24.45 35.18-25.2 36.78-25.2L36.78-25.2Q38.08-25.2 39.28-24.68 40.48-24.15 41.25-23.05 42.03-21.95 42.03-20.3L42.03-20.3Q42.03-19.3 41.75-17.9 41.48-16.5 41.13-15L41.13-15Q40.78-13.45 40.45-11.88 40.13-10.3 40.13-9.1L40.13-9.1Q40.13-8 40.48-7.3 40.83-6.6 41.53-6.6L41.53-6.6Q42.83-6.6 44.45-9 46.08-11.4 47.08-15.45L47.08-15.45Q47.28-16.25 47.43-17.15 47.58-18.05 47.58-19L47.58-19Q47.58-19.75 47.48-20.53 47.38-21.3 47.18-22.1L47.18-22.1 47.18-22.45Q47.98-23.8 49.25-24.5 50.53-25.2 51.83-25.2L51.83-25.2Q53.58-25.2 54.98-24 56.38-22.8 56.38-20.5L56.38-20.5Q56.38-19.15 55.88-17.38 55.38-15.6 54.78-13.7L54.78-13.7Q54.18-11.85 53.68-10.05 53.18-8.25 53.18-6.85L53.18-6.85Q53.18-4.8 54.63-4.8L54.63-4.8Q55.03-4.8 55.6-5.03 56.18-5.25 56.68-5.95L56.68-5.95 57.03-5.85Q57.03-4.05 56.05-2.68 55.08-1.3 53.58-0.55 52.08 0.2 50.48 0.2L50.48 0.2Q48.43 0.2 46.8-1.3 45.18-2.8 45.18-6.2L45.18-6.2 45.18-6.3Q43.13-2.8 40.93-1.3 38.73 0.2 36.83 0.2ZM70.21 0.45L70.21 0.45Q67.11 0.45 65.06-0.4 63.01-1.25 62.01-2.58 61.01-3.9 61.01-5.25L61.01-5.25Q61.01-7.15 62.71-8.63 64.41-10.1 67.31-10.1L67.31-10.1Q67.31-7.55 67.96-6.03 68.61-4.5 69.63-3.85 70.66-3.2 71.61-3.2L71.61-3.2Q72.76-3.2 73.53-3.88 74.31-4.55 74.31-5.55L74.31-5.55Q74.31-6.95 72.86-8 71.41-9.05 69.11-10.35L69.11-10.35Q67.96-11.05 66.61-11.98 65.26-12.9 64.31-14.23 63.36-15.55 63.36-17.4L63.36-17.4Q63.36-19.35 64.48-20.85 65.61-22.35 67.46-23.38 69.31-24.4 71.46-24.93 73.61-25.45 75.66-25.45L75.66-25.45Q79.51-25.45 81.46-23.9 83.41-22.35 83.41-20.6L83.41-20.6Q83.41-19.1 81.91-17.9 80.41-16.7 77.31-16.7L77.31-16.7Q77.36-19.25 76.26-20.43 75.16-21.6 73.91-21.6L73.91-21.6Q73.01-21.6 72.41-21.05 71.81-20.5 71.81-19.45L71.81-19.45Q71.81-18.25 72.58-17.38 73.36-16.5 74.53-15.83 75.71-15.15 76.96-14.55L76.96-14.55Q78.66-13.75 80.16-12.85 81.66-11.95 82.61-10.8 83.56-9.65 83.56-8L83.56-8Q83.56-5.75 81.73-3.83 79.91-1.9 76.86-0.73 73.81 0.45 70.21 0.45ZM95.64 0.2L95.64 0.2Q94.04 0.2 92.61-0.53 91.19-1.25 90.31-2.8 89.44-4.35 89.44-6.75L89.44-6.75Q89.44-8.05 89.69-10.15 89.94-12.25 90.36-14.75 90.79-17.25 91.24-19.75L91.24-19.75Q90.24-19.7 89.31-19.55 88.39-19.4 87.49-19.2L87.49-19.2 87.39-19.55Q88.39-20.75 89.49-21.6 90.59-22.45 91.79-23L91.79-23Q92.44-26.3 92.89-28.73 93.34-31.15 93.34-31.6L93.34-31.6Q93.34-32.45 94.66-33 95.99-33.55 97.64-33.55L97.64-33.55Q99.09-33.55 100.36-33 101.64-32.45 102.09-31.15L102.09-31.15Q101.79-30.85 101.24-28.93 100.69-27 100.09-24.25L100.09-24.25Q101.04-24.2 102.04-24.15 103.04-24.1 104.09-24L104.09-24Q104.19-23.7 104.24-23.35 104.29-23 104.29-22.6L104.29-22.6Q104.29-21.85 104.06-20.98 103.84-20.1 103.54-19.4L103.54-19.4Q102.34-19.5 101.29-19.63 100.24-19.75 99.24-19.8L99.24-19.8Q98.84-17.65 98.51-15.5 98.19-13.35 98.01-11.6 97.84-9.85 97.84-8.85L97.84-8.85Q97.84-6.75 98.61-6.05 99.39-5.35 100.49-5.35L100.49-5.35Q101.49-5.35 102.29-5.75 103.09-6.15 103.44-6.7L103.44-6.7 103.94-6.55Q103.64-4.5 102.34-2.98 101.04-1.45 99.24-0.63 97.44 0.2 95.64 0.2ZM131.7 0.3L131.7 0.3Q128.55 0.3 126.27-0.98 124-2.25 122.52-4.48 121.05-6.7 120.37-9.53 119.7-12.35 119.8-15.4L119.8-15.4Q120-20.85 121.8-24.8 123.6-28.75 126.35-31.3 129.1-33.85 132.27-35.08 135.45-36.3 138.4-36.3L138.4-36.3Q140.9-36.3 142.92-35.48 144.95-34.65 146.15-33.08 147.35-31.5 147.35-29.25L147.35-29.25Q147.35-27.5 146.32-25.88 145.3-24.25 143.22-23.23 141.15-22.2 137.9-22.2L137.9-22.2Q138.45-23.8 138.7-25 138.95-26.2 138.95-27.05L138.95-27.05Q138.95-28.8 138.15-29.43 137.35-30.05 136.15-30.05L136.15-30.05Q134.7-30.05 133.4-29 132.1-27.95 131.07-26.18 130.05-24.4 129.45-22.25 128.85-20.1 128.75-17.9L128.75-17.9Q128.55-12.35 130.35-9.5 132.15-6.65 135-6.65L135-6.65Q137.2-6.65 139.87-8.45 142.55-10.25 145.15-13.9L145.15-13.9 145.8-13.6Q145.15-9.1 142.95-6 140.75-2.9 137.77-1.3 134.8 0.3 131.7 0.3ZM162.28 0.35L162.28 0.35Q158.53 0.35 156.08-1.15 153.63-2.65 152.45-5.13 151.28-7.6 151.28-10.4L151.28-10.4Q151.28-13.05 152.25-15.7 153.23-18.35 155.1-20.53 156.98-22.7 159.68-24.03 162.38-25.35 165.88-25.35L165.88-25.35Q169.63-25.35 172.05-23.83 174.48-22.3 175.65-19.8 176.83-17.3 176.83-14.45L176.83-14.45Q176.83-11.85 175.88-9.22 174.93-6.6 173.05-4.42 171.18-2.25 168.48-0.95 165.78 0.35 162.28 0.35ZM163.63-3.9L163.63-3.9Q164.98-3.9 165.88-5.3 166.78-6.7 167.23-8.88 167.68-11.05 167.68-13.3L167.68-13.3Q167.68-15.3 167.3-17.07 166.93-18.85 166.18-19.98 165.43-21.1 164.23-21.1L164.23-21.1Q162.93-21.1 162-19.7 161.08-18.3 160.63-16.15 160.18-14 160.18-11.7L160.18-11.7Q160.18-9.7 160.55-7.93 160.93-6.15 161.68-5.03 162.43-3.9 163.63-3.9ZM188.96 0.2L188.96 0.2Q187.16 0.2 185.58-1.05 184.01-2.3 183.03-4.7 182.06-7.1 182.06-10.5L182.06-10.5Q182.06-14 183.06-16.75 184.06-19.5 185.68-21.43 187.31-23.35 189.23-24.35 191.16-25.35 193.01-25.35L193.01-25.35Q195.06-25.35 196.66-24.08 198.26-22.8 198.86-20.1L198.86-20.1Q199.31-22.6 199.63-24.88 199.96-27.15 199.96-28.9L199.96-28.9Q199.96-31.2 199.36-32.25L199.36-32.25 199.36-32.55Q200.51-33.85 201.88-34.48 203.26-35.1 204.51-35.1L204.51-35.1Q206.16-35.1 207.31-34.08 208.46-33.05 208.46-31.15L208.46-31.15Q208.46-30.1 208.11-28.05 207.76-26 207.26-23.38 206.76-20.75 206.23-17.98 205.71-15.2 205.36-12.68 205.01-10.15 205.01-8.3L205.01-8.3Q205.01-6.75 205.33-5.83 205.66-4.9 206.41-4.9L206.41-4.9Q206.96-4.9 207.53-5.28 208.11-5.65 208.31-6.15L208.31-6.15 208.66-5.9Q208.66-4.25 207.61-2.88 206.56-1.5 204.96-0.65 203.36 0.2 201.66 0.2L201.66 0.2Q199.81 0.2 198.73-0.83 197.66-1.85 197.21-3.45 196.76-5.05 196.71-6.75L196.71-6.75Q195.16-3.15 193.08-1.48 191.01 0.2 188.96 0.2ZM192.31-6.15L192.31-6.15Q193.61-6.15 195.21-8.5 196.81-10.85 198.01-15.35L198.01-15.35 198.31-16.9Q197.51-18.75 196.58-19.53 195.66-20.3 194.81-20.3L194.81-20.3Q193.56-20.3 192.46-18.93 191.36-17.55 190.68-15.43 190.01-13.3 190.01-10.95L190.01-10.95Q190.01-8.7 190.66-7.43 191.31-6.15 192.31-6.15ZM223.74 0.35L223.74 0.35Q220.09 0.35 217.69-1.13 215.29-2.6 214.09-5.03 212.89-7.45 212.89-10.25L212.89-10.25Q212.89-12.9 213.91-15.58 214.94-18.25 216.91-20.45 218.89-22.65 221.71-24 224.54-25.35 228.09-25.35L228.09-25.35Q232.49-25.35 234.51-23.38 236.54-21.4 236.54-18.6L236.54-18.6Q236.54-16.2 235.26-14.18 233.99-12.15 231.89-10.93 229.79-9.7 227.29-9.7L227.29-9.7Q225.99-9.7 224.64-10.1 223.29-10.5 221.99-11.35L221.99-11.35Q222.24-8.25 223.79-6.85 225.34-5.45 227.49-5.45L227.49-5.45Q228.99-5.45 230.49-6.03 231.99-6.6 233.26-7.53 234.54-8.45 235.24-9.5L235.24-9.5 235.59-9.25Q235.59-6.65 234.51-4.83 233.44-3 231.69-1.85 229.94-0.7 227.86-0.18 225.79 0.35 223.74 0.35ZM224.89-13.15L224.89-13.15Q226.49-13.15 227.49-14.08 228.49-15 228.99-16.25 229.49-17.5 229.49-18.45L229.49-18.45Q229.49-19.6 228.84-20.38 228.19-21.15 227.04-21.15L227.04-21.15Q226.14-21.15 225.06-20.5 223.99-19.85 223.14-18.28 222.29-16.7 222.04-13.9L222.04-13.9Q223.64-13.15 224.89-13.15ZM255.75 0.25L255.75 0.25Q254.35 0.25 253.27-0.93 252.2-2.1 252.2-5.3L252.2-5.3Q252.2-5.85 252.22-6.28 252.25-6.7 252.25-6.9L252.25-6.9Q252.45-8.9 252.82-11.88 253.2-14.85 253.7-18.13 254.2-21.4 254.72-24.45 255.25-27.5 255.7-29.78 256.15-32.05 256.45-32.9L256.45-32.9Q257-34.4 258.42-35.27 259.85-36.15 261.35-36.15L261.35-36.15Q262.65-36.15 263.72-35.4 264.8-34.65 265.2-32.85L265.2-32.85Q264.9-31.85 264.25-29.33 263.6-26.8 262.85-23.15 262.1-19.5 261.42-15.1 260.75-10.7 260.35-5.9L260.35-5.9Q260.3-5.05 260.2-3.93 260.1-2.8 260.05-1.65L260.05-1.65Q259.45-1 258.25-0.38 257.05 0.25 255.75 0.25ZM277.13 0.2L277.13 0.2Q275.53 0.2 274.1-0.53 272.68-1.25 271.8-2.8 270.93-4.35 270.93-6.75L270.93-6.75Q270.93-8.05 271.18-10.15 271.43-12.25 271.85-14.75 272.28-17.25 272.73-19.75L272.73-19.75Q271.73-19.7 270.8-19.55 269.88-19.4 268.98-19.2L268.98-19.2 268.88-19.55Q269.88-20.75 270.98-21.6 272.08-22.45 273.28-23L273.28-23Q273.93-26.3 274.38-28.73 274.83-31.15 274.83-31.6L274.83-31.6Q274.83-32.45 276.15-33 277.48-33.55 279.13-33.55L279.13-33.55Q280.58-33.55 281.85-33 283.13-32.45 283.58-31.15L283.58-31.15Q283.28-30.85 282.73-28.93 282.18-27 281.58-24.25L281.58-24.25Q282.53-24.2 283.53-24.15 284.53-24.1 285.58-24L285.58-24Q285.68-23.7 285.73-23.35 285.78-23 285.78-22.6L285.78-22.6Q285.78-21.85 285.55-20.98 285.33-20.1 285.03-19.4L285.03-19.4Q283.83-19.5 282.78-19.63 281.73-19.75 280.73-19.8L280.73-19.8Q280.33-17.65 280-15.5 279.68-13.35 279.5-11.6 279.33-9.85 279.33-8.85L279.33-8.85Q279.33-6.75 280.1-6.05 280.88-5.35 281.98-5.35L281.98-5.35Q282.98-5.35 283.78-5.75 284.58-6.15 284.93-6.7L284.93-6.7 285.43-6.55Q285.13-4.5 283.83-2.98 282.53-1.45 280.73-0.63 278.93 0.2 277.13 0.2Z" opacity="1" transform="matrix(1,0,0,1,0,0)" fill="#ffffff" class="slogan-text-1" data-fill-palette-color="quaternary" id="text-1"></path></svg></g></svg></g></svg></g></svg></g><g transform="matrix(1,0,0,1,40.01535999999999,0)"><svg viewBox="0 0 143.96928000000003 129.09422523985242" height="129.09422523985242" width="143.96928000000003"><g><svg xmlns="http://www.w3.org/2000/svg" xmlns:xlink="http://www.w3.org/1999/xlink" version="1.1" x="0" y="0" viewBox="9.4 13.5 81.3 72.9" style="enable-background:new 0 0 100 100;" xml:space="preserve" height="129.09422523985242" width="143.96928000000003" class="icon-icon-0" data-fill-palette-color="quaternary" id="icon-0"><path d="M83.3 13.5H16.7C12.7 13.5 9.4 16.8 9.4 20.8V79.1C9.4 83.1 12.7 86.4 16.7 86.4H83.4C87.4 86.4 90.7 83.1 90.7 79.1V20.8C90.6 16.8 87.4 13.5 83.3 13.5M84.4 20.8V30.2H49V19.8H83.4C83.9 19.8 84.4 20.3 84.4 20.8M32.3 30.2V19.8H42.7V30.2zM16.7 19.8H26V30.2H15.6V20.8C15.6 20.3 16.1 19.8 16.7 19.8M15.6 79.2V36.5H30.2V80.2H16.7C16.1 80.2 15.6 79.7 15.6 79.2M83.3 80.2H36.5V36.5H84.4V79.2C84.4 79.7 83.9 80.2 83.3 80.2" fill="#ffffff" data-fill-palette-color="quaternary"></path><rect x="45.8" y="46.9" width="29.2" height="6.2" fill="#ffffff" data-fill-palette-color="quaternary"></rect><rect x="45.8" y="63.5" width="20.8" height="6.2" fill="#ffffff" data-fill-palette-color="quaternary"></rect></svg></g></svg></g><g></g></svg></g></svg></g></svg></g></svg></g><defs></defs></svg><rect width="320" height="360" fill="none" stroke="none" visibility="hidden"></rect></g></svg></g></svg>